<svg width="17" height="16" viewBox="0 0 17 16" fill="none" xmlns="http://www.w3.org/2000/svg">
<path d="M10.8886 10.4979L11.9802 9.40633C12.1272 9.26113 12.3132 9.16173 12.5156 9.12021C12.7181 9.07869 12.9282 9.09682 13.1205 9.17242L14.4509 9.7036C14.6452 9.78248 14.8119 9.91714 14.9298 10.0906C15.0478 10.264 15.1117 10.4685 15.1136 10.6782V13.1149C15.1125 13.2575 15.0825 13.3985 15.0255 13.5293C14.9684 13.6601 14.8855 13.778 14.7817 13.8758C14.6779 13.9737 14.5553 14.0496 14.4214 14.0989C14.2875 14.1482 14.1451 14.1698 14.0026 14.1626C4.68007 13.5827 2.799 5.68806 2.44326 2.66666C2.42674 2.51828 2.44183 2.3681 2.48753 2.22597C2.53323 2.08385 2.6085 1.95302 2.70839 1.84207C2.80829 1.73113 2.93054 1.6426 3.06711 1.5823C3.20367 1.52199 3.35146 1.49129 3.50075 1.49221H5.85452C6.06456 1.49283 6.26961 1.55627 6.4433 1.67438C6.61699 1.79249 6.75137 1.95986 6.82916 2.15497L7.36034 3.48536C7.43844 3.67691 7.45836 3.88722 7.41763 4.09003C7.37689 4.29284 7.2773 4.47915 7.1313 4.62569L6.0397 5.7173C6.0397 5.7173 6.66835 9.97162 10.8886 10.4979Z" fill="white"/>
</svg>
