<svg width="216" height="42" viewBox="0 0 216 42" fill="none" xmlns="http://www.w3.org/2000/svg">
<path d="M8.26368 9.5005C9.63747 8.80578 11.1597 8.45587 12.699 8.481C14.5174 8.45904 16.3062 8.94305 17.8655 9.87896C19.4248 10.8149 20.6932 12.1658 21.529 13.7809C22.4438 15.565 22.9021 17.548 22.863 19.5525C22.8974 21.5749 22.4396 23.5752 21.529 25.3813C20.7002 27.0304 19.4294 28.4167 17.8584 29.3854C16.3061 30.3391 14.5159 30.8345 12.6942 30.8146C11.169 30.843 9.65982 30.4996 8.29703 29.8142C7.0902 29.2075 6.02145 28.3586 5.15755 27.3202V40.7452H0.68654V8.82639H5.16232V12.0064C5.99791 10.9518 7.05717 10.096 8.26368 9.5005ZM17.3915 15.6937C16.8268 14.6584 15.9835 13.8019 14.9571 13.2212C13.9689 12.6631 12.8525 12.3717 11.7176 12.3756C10.5935 12.3754 9.48949 12.6738 8.51855 13.2402C7.49302 13.8317 6.65062 14.6947 6.08415 15.7342C5.44608 16.9286 5.12847 18.2679 5.16232 19.6216C5.13057 20.9812 5.44795 22.3261 6.08415 23.5281C6.62515 24.5537 7.43555 25.4123 8.42817 26.0117C9.42079 26.611 10.558 26.9284 11.7176 26.9296C12.8575 26.9338 13.9772 26.6284 14.9571 26.0459C15.991 25.4312 16.8338 24.5414 17.3915 23.4757C18.0272 22.265 18.3444 20.9125 18.3133 19.5454C18.3475 18.2 18.0298 16.869 17.3915 15.6842V15.6937Z" fill="white"/>
<path d="M27.1677 13.781C28.0105 12.1664 29.2838 10.8167 30.8465 9.88126C32.4093 8.94582 34.2004 8.46118 36.0216 8.48105C37.5666 8.44526 39.0968 8.78877 40.4783 9.48149C41.6632 10.0792 42.7018 10.9307 43.5201 11.9754V8.82644H48.0459V30.4598H43.5201V27.2464C42.6957 28.3222 41.6366 29.1955 40.4235 29.7999C38.9188 30.5354 37.254 30.8828 35.5807 30.8104C33.9074 30.738 32.2787 30.2482 30.8431 29.3855C29.2783 28.4093 28.0092 27.025 27.1725 25.3813C26.247 23.5773 25.7814 21.5727 25.8171 19.5454C25.7777 17.5412 26.2421 15.5591 27.1677 13.781ZM42.5983 15.7342C42.0378 14.6917 41.2024 13.8226 40.183 13.2212C39.2063 12.6497 38.0941 12.351 36.9625 12.3566C35.8342 12.3513 34.7244 12.6429 33.7444 13.2022C32.7262 13.7872 31.8901 14.6431 31.3291 15.6747C30.6892 16.8623 30.3714 18.1968 30.4072 19.5454C30.377 20.9109 30.6942 22.2617 31.3291 23.471C31.8867 24.5367 32.7295 25.4265 33.7635 26.0412C34.7297 26.6214 35.8354 26.9285 36.9625 26.9296C38.0939 26.936 39.2061 26.6382 40.183 26.0674C41.2058 25.4618 42.0417 24.5856 42.5983 23.5353C43.2345 22.3334 43.5519 20.9884 43.5201 19.6288C43.5552 18.2727 43.2376 16.9307 42.5983 15.7342Z" fill="white"/>
<path d="M64.4056 12.4856V8.82681H59.1485V4.58447L54.6227 6.01367V8.82681H52.0788V12.4784H54.6394V24.4527C54.6394 26.5727 55.1754 28.1043 56.2473 29.0476C57.3192 29.9909 58.8643 30.4617 60.8826 30.4601H64.4056V26.7394H61.6568C60.7421 26.7394 60.0918 26.5608 59.7131 26.2083C59.3343 25.8557 59.1485 25.2698 59.1485 24.4599V12.4856H64.4056Z" fill="white"/>
<path d="M68.7639 5.14412C68.3525 4.74486 68.0706 4.2311 67.9549 3.66956C67.8392 3.10803 67.8951 2.52469 68.1152 1.9953C68.3353 1.46592 68.7096 1.01496 69.1893 0.701013C69.669 0.387066 70.2321 0.224638 70.8053 0.234827C71.178 0.228406 71.548 0.298436 71.8926 0.440598C72.2371 0.58276 72.5489 0.794036 72.8086 1.06138C73.3375 1.60933 73.6331 2.34118 73.6331 3.10276C73.6331 3.86433 73.3375 4.59617 72.8086 5.14412C72.5484 5.4107 72.2365 5.62131 71.892 5.76303C71.5476 5.90475 71.1778 5.97461 70.8053 5.9683C70.4269 5.9773 70.0505 5.90883 69.6995 5.7671C69.3484 5.62537 69.0301 5.41337 68.7639 5.14412Z" fill="white"/>
<path d="M73.0049 8.83325H68.5291V30.4666H73.0049V8.83325Z" fill="white"/>
<path d="M98.5638 21.318H82.0327C82.1645 23.0474 82.806 24.4353 83.9573 25.4817C85.1159 26.5313 86.6346 27.0936 88.1973 27.0515C90.6031 27.0515 92.3039 26.0439 93.2995 24.0287H98.1302C97.4933 25.9934 96.2489 27.705 94.5763 28.9166C92.8612 30.187 90.7349 30.8222 88.1973 30.8222C86.2546 30.8542 84.3378 30.3736 82.6401 29.4287C81.0147 28.507 79.6822 27.1456 78.7955 25.5008C77.8666 23.8128 77.4021 21.8563 77.4021 19.6316C77.4021 17.4068 77.8539 15.4504 78.7574 13.7623C79.6197 12.1164 80.9445 10.7585 82.5686 9.85584C84.2962 8.91655 86.2384 8.44289 88.2044 8.48142C90.1081 8.44798 91.988 8.90751 93.6616 9.81535C95.2365 10.6839 96.53 11.9848 97.3894 13.5646C98.3041 15.2709 98.7643 17.1838 98.7257 19.1194C98.7298 19.8554 98.6756 20.5906 98.5638 21.318ZM94.0379 17.7069C94.011 16.0586 93.4226 14.7366 92.2729 13.7409C91.1232 12.7452 89.694 12.2482 87.9853 12.2497C86.5243 12.2191 85.1064 12.7454 84.0193 13.7218C82.9204 14.7032 82.2661 16.0316 82.0565 17.7069H94.0379Z" fill="white"/>
<path d="M118.605 9.54119C119.951 10.2451 121.053 11.3395 121.766 12.6807C122.524 14.0702 122.903 15.7455 122.905 17.7067V30.467H118.477V18.3736C118.477 16.4363 117.993 14.9515 117.026 13.9193C116.059 12.8871 114.737 12.3694 113.06 12.3662C111.383 12.3662 110.055 12.8839 109.075 13.9193C108.095 14.9547 107.604 16.4395 107.603 18.3736V30.467H103.117V8.82659H107.593V11.2991C108.35 10.3923 109.312 9.67933 110.399 9.21963C111.545 8.72061 112.782 8.46666 114.032 8.47406C115.621 8.44948 117.191 8.81594 118.605 9.54119Z" fill="white"/>
<path d="M139.081 12.4854V8.82661H133.819V4.35083L129.305 5.78004V8.82661H126.751V12.4782H129.305V24.4525C129.305 26.5725 129.841 28.1041 130.913 29.0474C131.985 29.9907 133.529 30.4615 135.546 30.4599H139.081V26.7392H136.341C135.422 26.7392 134.776 26.5606 134.398 26.208C134.019 25.8555 133.828 25.2695 133.828 24.4597V12.4854H139.081Z" fill="white"/>
<path d="M156.375 9.48128C157.569 10.0648 158.61 10.9187 159.416 11.9752V8.82623H163.942V30.8121C163.975 32.6632 163.543 34.493 162.684 36.1335C161.854 37.6815 160.593 38.9563 159.054 39.8041C157.466 40.6918 155.575 41.1365 153.38 41.138C150.447 41.138 148.013 40.4512 146.077 39.0776C145.148 38.4479 144.37 37.6202 143.799 36.654C143.227 35.6878 142.877 34.607 142.773 33.4894H147.209C147.568 34.6395 148.344 35.6135 149.386 36.2192C150.588 36.9371 151.971 37.2982 153.371 37.2601C155.176 37.2601 156.636 36.7107 157.749 35.6118C158.862 34.5129 159.418 32.9162 159.416 30.8216V27.2081C158.532 28.3507 157.395 29.2718 156.093 29.8986C154.792 30.5254 153.362 30.8406 151.918 30.8192C150.097 30.8392 148.307 30.3437 146.756 29.39C145.182 28.419 143.904 27.0338 143.064 25.3859C142.138 23.5802 141.674 21.5739 141.711 19.5452C141.671 17.5384 142.136 15.5537 143.064 13.7736C143.907 12.1594 145.181 10.81 146.743 9.8746C148.306 8.93922 150.097 8.45437 151.918 8.4737C153.463 8.44614 154.992 8.79178 156.375 9.48128ZM158.494 15.734C157.935 14.691 157.099 13.8218 156.079 13.221C155.103 12.6498 153.992 12.3511 152.861 12.3564C151.732 12.3506 150.621 12.6423 149.641 13.202C148.622 13.787 147.786 14.6428 147.225 15.6745C146.585 16.8621 146.268 18.1966 146.303 19.5452C146.273 20.9107 146.59 22.2615 147.225 23.4708C147.783 24.5365 148.626 25.4263 149.66 26.0409C150.627 26.6215 151.733 26.9286 152.861 26.9294C153.992 26.9355 155.103 26.6377 156.079 26.0671C157.102 25.4632 157.939 24.5876 158.494 23.5375C159.131 22.3355 159.448 20.9905 159.416 19.631C159.452 18.2741 159.134 16.9312 158.494 15.734Z" fill="white"/>
<path d="M176.907 9.40298C178.093 8.76378 179.426 8.44599 180.773 8.48115V13.1141H179.634C177.887 13.1141 176.559 13.5588 175.649 14.448C174.739 15.3373 174.288 16.8817 174.296 19.081V30.467H169.82V8.82654H174.296V11.9684C174.924 10.897 175.825 10.0117 176.907 9.40298Z" fill="white"/>
<path d="M185.132 5.14412C184.721 4.74486 184.439 4.2311 184.323 3.66956C184.208 3.10803 184.263 2.52469 184.484 1.9953C184.704 1.46592 185.078 1.01496 185.558 0.701013C186.037 0.387066 186.6 0.224638 187.174 0.234827C187.546 0.228166 187.916 0.2981 188.26 0.440286C188.604 0.582471 188.915 0.793875 189.175 1.06138C189.705 1.60876 190.001 2.34082 190.001 3.10276C190.001 3.86469 189.705 4.59674 189.175 5.14412C188.915 5.41085 188.604 5.6216 188.259 5.76335C187.915 5.9051 187.546 5.97484 187.174 5.9683C186.795 5.9773 186.419 5.90883 186.068 5.7671C185.717 5.62537 185.398 5.41337 185.132 5.14412Z" fill="white"/>
<path d="M189.372 8.83325H184.896V30.4666H189.372V8.83325Z" fill="white"/>
<path d="M195.122 13.7807C195.968 12.1604 197.248 10.8071 198.818 9.87132C200.389 8.93555 202.188 8.45414 204.016 8.48072C205.459 8.48737 206.884 8.80163 208.196 9.40255C209.472 9.94274 210.596 10.7847 211.474 11.856V1.41333H216V30.4737H211.474V27.208C210.684 28.3045 209.64 29.1936 208.432 29.7996C207.052 30.4985 205.522 30.8485 203.976 30.8191C202.155 30.8391 200.365 30.3436 198.814 29.3899C197.24 28.4182 195.963 27.0332 195.122 25.3858C194.196 23.5801 193.731 21.5737 193.769 19.5451C193.73 17.5407 194.195 15.5586 195.122 13.7807ZM210.552 15.7339C209.992 14.6909 209.157 13.8216 208.137 13.2209C207.161 12.6494 206.05 12.3508 204.919 12.3562C203.79 12.3505 202.679 12.6422 201.698 13.2018C200.681 13.787 199.846 14.6429 199.285 15.6744C198.644 16.8614 198.325 18.1962 198.361 19.5451C198.33 20.9109 198.649 22.262 199.285 23.4706C199.842 24.5362 200.684 25.4261 201.717 26.0408C202.684 26.6214 203.791 26.9284 204.919 26.9293C206.049 26.9356 207.161 26.6378 208.137 26.067C209.161 25.4625 209.997 24.586 210.552 23.535C211.188 22.333 211.506 20.988 211.474 19.6285C211.509 18.2724 211.191 16.9304 210.552 15.7339Z" fill="white"/>
</svg>
