<svg width="38" height="48" viewBox="0 0 38 48" fill="none" xmlns="http://www.w3.org/2000/svg">
<path d="M37.0465 18.6928C37.0458 21.7044 36.3109 24.6704 34.9057 27.3341C33.5004 29.9977 31.4671 32.2787 28.9817 33.9796C26.4964 35.6804 23.6339 36.7498 20.6421 37.0952C17.6504 37.4405 14.6196 37.0515 11.812 35.9617V18.6928C11.8106 20.18 12.2504 21.6342 13.0756 22.8715C13.9009 24.1088 15.0746 25.0735 16.4482 25.6436C17.8218 26.2137 19.3337 26.3636 20.7925 26.0743C22.2514 25.785 23.5916 25.0695 24.6438 24.0184C25.6959 22.9672 26.4126 21.6276 26.7033 20.1691C26.9939 18.7105 26.8455 17.1985 26.2766 15.8244C25.7078 14.4502 24.7442 13.2756 23.5077 12.4492C22.2712 11.6228 20.8174 11.1817 19.3301 11.1817C18.3429 11.1811 17.3652 11.375 16.4529 11.7525C15.5406 12.13 14.7117 12.6835 14.0135 13.3815C13.3153 14.0795 12.7615 14.9082 12.3837 15.8204C12.006 16.7325 11.8117 17.7102 11.812 18.6974V18.1609H0.0112762C0.165199 13.3062 2.21996 8.70611 5.73291 5.35175C9.24586 1.99739 13.9359 0.157176 18.7926 0.227532C23.6493 0.297887 28.284 2.27319 31.6983 5.7279C35.1126 9.18261 37.0333 13.8402 37.0465 18.6974V18.6928Z" fill="white"/>
<path d="M11.8125 32.1521V47.1461H0V18.6926C0 24.8285 4.89648 30.06 11.8125 32.1521Z" fill="white"/>
<path d="M11.8125 18.1562V35.9617C8.33133 34.6108 5.34019 32.2385 3.23199 29.1565C1.12379 26.0745 -0.00287464 22.4268 5.50825e-06 18.6928C5.50825e-06 18.5124 9.79769e-06 18.339 0.0117239 18.1562H11.8125Z" fill="#4482C2"/>
</svg>
