<svg width="137" height="27" viewBox="0 0 137 27" fill="none" xmlns="http://www.w3.org/2000/svg">
<path d="M5.22681 6.40435C6.09824 5.96367 7.06384 5.74171 8.04024 5.75765C9.19374 5.74372 10.3284 6.05074 11.3175 6.64442C12.3066 7.23809 13.1112 8.09504 13.6414 9.11956C14.2216 10.2513 14.5124 11.5091 14.4875 12.7806C14.5094 14.0635 14.219 15.3324 13.6414 16.478C13.1157 17.5241 12.3095 18.4034 11.313 19.0179C10.3284 19.6228 9.19277 19.9371 8.03722 19.9245C7.06974 19.9425 6.11242 19.7247 5.24797 19.2899C4.48244 18.9051 3.80451 18.3665 3.25651 17.7079V26.2237H0.420419V5.97675H3.25953V7.99389C3.78957 7.32497 4.46149 6.78207 5.22681 6.40435ZM11.0168 10.3329C10.6587 9.67614 10.1237 9.13283 9.47264 8.76449C8.84577 8.41051 8.13762 8.22566 7.41772 8.22809C6.70467 8.22796 6.00438 8.41724 5.38849 8.77658C4.73796 9.15173 4.2036 9.69915 3.84428 10.3586C3.43953 11.1162 3.23806 11.9658 3.25953 12.8245C3.23939 13.6869 3.44072 14.54 3.84428 15.3024C4.18745 15.953 4.70151 16.4977 5.33116 16.8779C5.9608 17.2581 6.6822 17.4594 7.41772 17.4601C8.14082 17.4628 8.85108 17.2691 9.47264 16.8995C10.1285 16.5097 10.6631 15.9452 11.0168 15.2692C11.4201 14.5012 11.6213 13.6433 11.6016 12.7761C11.6233 11.9227 11.4217 11.0784 11.0168 10.3268V10.3329Z" fill="#282828"/>
<path d="M17.2182 9.11959C17.7528 8.09543 18.5605 7.23925 19.5518 6.64587C20.543 6.0525 21.6792 5.74508 22.8344 5.75768C23.8145 5.73498 24.7852 5.95287 25.6615 6.39229C26.4131 6.77143 27.0719 7.31157 27.591 7.97427V5.97677H30.4618V19.6994H27.591V17.6611C27.068 18.3435 26.3962 18.8975 25.6267 19.2809C24.6722 19.7474 23.6162 19.9677 22.5547 19.9218C21.4933 19.8759 20.4602 19.5652 19.5496 19.018C18.557 18.3988 17.752 17.5206 17.2212 16.478C16.6341 15.3337 16.3388 14.0621 16.3614 12.7761C16.3364 11.5048 16.631 10.2475 17.2182 9.11959ZM27.0062 10.3586C26.6507 9.6973 26.1208 9.14601 25.4741 8.76452C24.8546 8.40195 24.1491 8.21252 23.4313 8.21603C22.7156 8.21267 22.0116 8.39766 21.39 8.75242C20.7441 9.1235 20.2137 9.66641 19.8578 10.3208C19.4519 11.0742 19.2503 11.9207 19.2731 12.7761C19.2539 13.6423 19.4551 14.4991 19.8578 15.2662C20.2116 15.9422 20.7462 16.5067 21.402 16.8966C22.015 17.2646 22.7163 17.4594 23.4313 17.4601C24.1489 17.4642 24.8545 17.2753 25.4741 16.9132C26.123 16.5291 26.6531 15.9733 27.0062 15.307C27.4098 14.5446 27.6111 13.6914 27.591 12.829C27.6132 11.9688 27.4117 11.1176 27.0062 10.3586Z" fill="#282828"/>
<path d="M40.8392 8.2977V5.97685H37.5045V3.28581L34.6337 4.19239V5.97685H33.0199V8.29317H34.6442V15.8888C34.6442 17.2336 34.9842 18.2051 35.6641 18.8035C36.3441 19.4018 37.3242 19.7005 38.6045 19.6995H40.8392V17.3393H39.0956C38.5153 17.3393 38.1028 17.226 37.8626 17.0024C37.6224 16.7788 37.5045 16.4071 37.5045 15.8933V8.2977H40.8392Z" fill="#282828"/>
<path d="M43.6039 3.6409C43.3429 3.38763 43.1641 3.06174 43.0907 2.70554C43.0173 2.34935 43.0527 1.97931 43.1923 1.64351C43.332 1.30771 43.5694 1.02165 43.8737 0.822506C44.178 0.623361 44.5351 0.520328 44.8988 0.526791C45.1352 0.522718 45.3699 0.56714 45.5884 0.657318C45.807 0.747495 46.0047 0.881514 46.1695 1.0511C46.505 1.39868 46.6925 1.86291 46.6925 2.346C46.6925 2.82909 46.505 3.29331 46.1695 3.6409C46.0045 3.80999 45.8066 3.94359 45.5881 4.03349C45.3696 4.12339 45.135 4.1677 44.8988 4.1637C44.6587 4.16941 44.42 4.12597 44.1973 4.03607C43.9746 3.94617 43.7727 3.81169 43.6039 3.6409Z" fill="#282828"/>
<path d="M46.294 5.98134H43.4549V19.704H46.294V5.98134Z" fill="#282828"/>
<path d="M62.5067 13.9003H52.0206C52.1042 14.9973 52.5111 15.8777 53.2414 16.5415C53.9763 17.2073 54.9397 17.5639 55.931 17.5372C57.457 17.5372 58.5359 16.8981 59.1674 15.6198H62.2317C61.8277 16.8661 61.0383 17.9518 59.9773 18.7203C58.8894 19.5262 57.5406 19.9291 55.931 19.9291C54.6987 19.9494 53.4828 19.6445 52.4059 19.0452C51.3748 18.4605 50.5296 17.5969 49.9672 16.5536C49.3779 15.4828 49.0832 14.2418 49.0832 12.8306C49.0832 11.4193 49.3698 10.1783 49.943 9.10753C50.49 8.06347 51.3303 7.20214 52.3605 6.62955C53.4564 6.03372 54.6884 5.73327 55.9355 5.75771C57.143 5.7365 58.3355 6.02799 59.3971 6.60386C60.3961 7.15478 61.2166 7.98001 61.7618 8.98213C62.342 10.0645 62.6339 11.2779 62.6094 12.5057C62.612 12.9726 62.5777 13.4389 62.5067 13.9003ZM59.6359 11.6097C59.6187 10.5641 59.2455 9.72552 58.5162 9.09394C57.7869 8.46235 56.8803 8.14706 55.7965 8.14807C54.8698 8.12864 53.9703 8.46248 53.2807 9.08185C52.5837 9.70437 52.1686 10.547 52.0357 11.6097H59.6359Z" fill="#282828"/>
<path d="M75.2196 6.43026C76.0734 6.87678 76.7723 7.57095 77.2246 8.42171C77.7051 9.30311 77.9459 10.3658 77.9469 11.6099V19.7041H75.138V12.0329C75.138 10.804 74.8312 9.86217 74.2178 9.20742C73.6043 8.55267 72.7658 8.22428 71.702 8.22226C70.6383 8.22226 69.7957 8.55065 69.1742 9.20742C68.5527 9.86419 68.2414 10.806 68.2404 12.0329V19.7041H65.3952V5.97697H68.2344V7.54535C68.7141 6.97013 69.3244 6.51788 70.0143 6.22628C70.741 5.90974 71.5259 5.74865 72.3185 5.75335C73.3264 5.73775 74.3227 5.97021 75.2196 6.43026Z" fill="#282828"/>
<path d="M88.2076 8.29764V5.97679H84.8699V3.13768L82.0066 4.04427V5.97679H80.3869V8.29311H82.0066V15.8887C82.0066 17.2335 82.3466 18.2051 83.0265 18.8034C83.7065 19.4018 84.6861 19.7004 85.9654 19.6994H88.2076V17.3393H86.47C85.8868 17.3393 85.4773 17.226 85.2371 17.0023C84.9968 16.7787 84.8759 16.407 84.8759 15.8933V8.29764H88.2076Z" fill="#282828"/>
<path d="M99.1777 6.39235C99.9351 6.76249 100.596 7.30415 101.107 7.97433V5.97683H103.978V19.9231C103.999 21.0973 103.725 22.258 103.18 23.2986C102.653 24.2806 101.854 25.0892 100.878 25.627C99.8702 26.1901 98.6705 26.4721 97.2784 26.4731C95.4179 26.4731 93.8737 26.0375 92.6458 25.1661C92.0564 24.7667 91.5628 24.2417 91.2005 23.6288C90.8381 23.0159 90.616 22.3303 90.5501 21.6214H93.3635C93.5912 22.3509 94.0839 22.9687 94.7445 23.353C95.5075 23.8084 96.3842 24.0374 97.2724 24.0133C98.4177 24.0133 99.3434 23.6647 100.05 22.9677C100.756 22.2706 101.108 21.2578 101.107 19.9291V17.637C100.547 18.3618 99.8249 18.9461 98.9993 19.3436C98.1737 19.7412 97.2669 19.9412 96.3507 19.9276C95.1956 19.9403 94.0605 19.626 93.0764 19.021C92.0777 18.4051 91.2675 17.5264 90.7344 16.4811C90.1474 15.3357 89.8526 14.063 89.8762 12.7762C89.8509 11.5032 90.146 10.2443 90.7344 9.11512C91.2693 8.09118 92.0771 7.23519 93.0683 6.64185C94.0595 6.04851 95.1955 5.74095 96.3507 5.75321C97.3307 5.73573 98.3005 5.95498 99.1777 6.39235ZM100.522 10.3586C100.167 9.69703 99.6374 9.14564 98.9904 8.76457C98.3713 8.4022 97.6663 8.21278 96.949 8.21609C96.2328 8.21247 95.5283 8.39746 94.9062 8.75248C94.2603 9.12356 93.73 9.66647 93.3741 10.3209C92.9682 11.0742 92.7666 11.9207 92.7893 12.7762C92.7702 13.6424 92.9714 14.4992 93.3741 15.2663C93.7278 15.9423 94.2624 16.5067 94.9183 16.8966C95.5317 17.2649 96.2336 17.4597 96.949 17.4602C97.6662 17.464 98.3712 17.2751 98.9904 16.9132C99.6395 16.5302 100.17 15.9747 100.522 15.3086C100.926 14.5462 101.127 13.693 101.107 12.8306C101.13 11.9699 100.928 11.1181 100.522 10.3586Z" fill="#282828"/>
<path d="M112.202 6.34249C112.954 5.93703 113.8 5.73544 114.654 5.75774V8.69658H113.932C112.824 8.69658 111.981 8.97862 111.404 9.54272C110.827 10.1068 110.541 11.0864 110.546 12.4816V19.704H107.707V5.97683H110.546V7.9698C110.944 7.2902 111.516 6.72859 112.202 6.34249Z" fill="#282828"/>
<path d="M117.42 3.6409C117.159 3.38763 116.98 3.06174 116.906 2.70554C116.833 2.34935 116.868 1.97931 117.008 1.64351C117.148 1.30771 117.385 1.02165 117.689 0.822506C117.994 0.623361 118.351 0.520328 118.715 0.526791C118.951 0.522566 119.185 0.566927 119.404 0.657119C119.622 0.747312 119.819 0.881411 119.984 1.0511C120.32 1.39832 120.508 1.86269 120.508 2.346C120.508 2.82931 120.32 3.29368 119.984 3.6409C119.819 3.81009 119.622 3.94378 119.403 4.03369C119.185 4.1236 118.951 4.16785 118.715 4.1637C118.474 4.16941 118.236 4.12597 118.013 4.03607C117.79 3.94617 117.588 3.81169 117.42 3.6409Z" fill="#282828"/>
<path d="M120.109 5.98134H117.27V19.704H120.109V5.98134Z" fill="#282828"/>
<path d="M123.756 9.11975C124.293 8.092 125.105 7.23352 126.101 6.63994C127.097 6.04636 128.239 5.74098 129.398 5.75784C130.314 5.76206 131.218 5.96141 132.05 6.34258C132.859 6.68524 133.572 7.21933 134.129 7.89888V1.2748H137V19.7086H134.129V17.6371C133.628 18.3326 132.966 18.8966 132.199 19.281C131.324 19.7243 130.353 19.9464 129.372 19.9277C128.217 19.9404 127.082 19.6261 126.098 19.0211C125.1 18.4048 124.29 17.5262 123.756 16.4812C123.169 15.3358 122.874 14.0631 122.898 12.7763C122.873 11.5048 123.168 10.2475 123.756 9.11975ZM133.544 10.3587C133.189 9.69713 132.659 9.14574 132.012 8.76467C131.393 8.40217 130.688 8.21273 129.971 8.21619C129.255 8.21257 128.55 8.39756 127.928 8.75258C127.282 9.12376 126.753 9.66668 126.397 10.321C125.99 11.0739 125.788 11.9206 125.811 12.7763C125.792 13.6427 125.993 14.4997 126.397 15.2664C126.751 15.9423 127.285 16.5067 127.94 16.8967C128.553 17.265 129.255 17.4598 129.971 17.4603C130.688 17.4643 131.393 17.2754 132.012 16.9133C132.661 16.5298 133.192 15.9739 133.544 15.3072C133.948 14.5447 134.149 13.6916 134.129 12.8292C134.151 11.969 133.95 11.1177 133.544 10.3587Z" fill="#282828"/>
</svg>
