<svg width="34" height="34" viewBox="0 0 34 34" fill="none" xmlns="http://www.w3.org/2000/svg">
<path d="M7.05127 29.6923C6.27563 29.6923 5.6114 29.4164 5.05858 28.8645C4.5067 28.3117 4.23076 27.6474 4.23076 26.8718V7.12819C4.23076 6.35255 4.5067 5.68832 5.05858 5.1355C5.6114 4.58362 6.27563 4.30768 7.05127 4.30768H26.7949C27.5705 4.30768 28.2347 4.58362 28.7876 5.1355C29.3394 5.68832 29.6154 6.35255 29.6154 7.12819V26.8718C29.6154 27.6474 29.3394 28.3117 28.7876 28.8645C28.2347 29.4164 27.5705 29.6923 26.7949 29.6923H7.05127ZM16.9231 22.641C17.8162 22.641 18.6271 22.3825 19.3558 21.8654C20.0844 21.3483 20.5897 20.6667 20.8718 19.8205H26.7949V7.12819H7.05127V19.8205H12.9743C13.2564 20.6667 13.7617 21.3483 14.4904 21.8654C15.219 22.3825 16.0299 22.641 16.9231 22.641Z" fill="#2397F3"/>
</svg>
