<svg width="22" height="23" viewBox="0 0 22 23" fill="none" xmlns="http://www.w3.org/2000/svg">
<path d="M4.50877 19.6244C4.01887 19.6244 3.59934 19.4502 3.25018 19.1016C2.90161 18.7524 2.72733 18.3329 2.72733 17.843V5.37288C2.72733 4.88298 2.90161 4.46345 3.25018 4.11429C3.59934 3.76572 4.01887 3.59143 4.50877 3.59143H16.9789C17.4688 3.59143 17.8883 3.76572 18.2375 4.11429C18.5861 4.46345 18.7603 4.88298 18.7603 5.37288V17.843C18.7603 18.3329 18.5861 18.7524 18.2375 19.1016C17.8883 19.4502 17.4688 19.6244 16.9789 19.6244H4.50877ZM10.7438 15.1708C11.308 15.1708 11.8201 15.0075 12.2803 14.6809C12.7405 14.3543 13.0597 13.9238 13.2379 13.3894H16.9789V5.37288H4.50877V13.3894H8.24981C8.42795 13.9238 8.74713 14.3543 9.20734 14.6809C9.66754 15.0075 10.1797 15.1708 10.7438 15.1708Z" fill="#2397F3"/>
</svg>
