<svg width="153" height="30" viewBox="0 0 153 30" fill="none" xmlns="http://www.w3.org/2000/svg">
<path d="M5.72423 6.95134C6.69818 6.45881 7.77738 6.21074 8.86864 6.22856C10.1579 6.21299 11.426 6.55613 12.5315 7.21965C13.6369 7.88316 14.5362 8.84093 15.1288 9.98598C15.7773 11.2508 16.1022 12.6567 16.0745 14.0778C16.0989 15.5115 15.7743 16.9297 15.1288 18.2101C14.5412 19.3793 13.6402 20.3621 12.5264 21.0489C11.4259 21.725 10.1568 22.0762 8.86527 22.0621C7.78397 22.0822 6.71403 21.8388 5.74787 21.3528C4.89229 20.9227 4.13459 20.3209 3.52212 19.5847V29.1024H0.352375V6.47343H3.5255V8.72788C4.1179 7.98027 4.86887 7.3735 5.72423 6.95134ZM12.1954 11.342C11.7951 10.608 11.1973 10.0008 10.4696 9.58914C9.76895 9.19351 8.97748 8.98692 8.17289 8.98964C7.37595 8.98949 6.59327 9.20104 5.90492 9.60265C5.17786 10.0219 4.58064 10.6338 4.17904 11.3707C3.72668 12.2175 3.50151 13.167 3.5255 14.1268C3.50299 15.0906 3.728 16.0441 4.17904 16.8963C4.56258 17.6234 5.13712 18.2321 5.84085 18.657C6.54457 19.0819 7.35083 19.3069 8.17289 19.3078C8.98106 19.3108 9.77488 19.0942 10.4696 18.6813C11.2026 18.2455 11.8001 17.6147 12.1954 16.8591C12.6461 16.0008 12.871 15.0419 12.849 14.0727C12.8732 13.1189 12.648 12.1753 12.1954 11.3353V11.342Z" fill="#282828"/>
<path d="M19.1263 9.98603C19.7239 8.84139 20.6266 7.88448 21.7345 7.22129C22.8424 6.5581 24.1122 6.21452 25.4034 6.2286C26.4987 6.20323 27.5836 6.44676 28.563 6.93787C29.403 7.36162 30.1393 7.9653 30.7195 8.70597V6.47347H33.9281V21.8105H30.7195V19.5324C30.135 20.2951 29.3842 20.9143 28.5241 21.3427C27.4573 21.8642 26.277 22.1104 25.0907 22.0591C23.9044 22.0078 22.7498 21.6605 21.7321 21.0489C20.6226 20.3569 19.7229 19.3754 19.1297 18.2102C18.4736 16.9312 18.1435 15.51 18.1688 14.0728C18.1409 12.6518 18.4701 11.2466 19.1263 9.98603ZM30.0659 11.3708C29.6685 10.6317 29.0763 10.0156 28.3536 9.58918C27.6612 9.18397 26.8726 8.97225 26.0704 8.97617C25.2705 8.97242 24.4837 9.17917 23.7889 9.57567C23.067 9.99041 22.4743 10.5972 22.0766 11.3286C21.6229 12.1706 21.3976 13.1167 21.423 14.0728C21.4016 15.0408 21.6265 15.9985 22.0766 16.8558C22.4719 17.6113 23.0694 18.2422 23.8024 18.6779C24.4875 19.0893 25.2713 19.307 26.0704 19.3078C26.8725 19.3123 27.6611 19.1012 28.3536 18.6965C29.0788 18.2672 29.6713 17.646 30.0659 16.9014C30.517 16.0493 30.742 15.0957 30.7195 14.1319C30.7444 13.1704 30.5192 12.219 30.0659 11.3708Z" fill="#282828"/>
<path d="M45.5263 9.06752V6.47363H41.7993V3.466L38.5907 4.47924V6.47363H36.7872V9.06246H38.6026V17.5517C38.6026 19.0547 38.9825 20.1405 39.7424 20.8093C40.5024 21.478 41.5978 21.8118 43.0287 21.8107H45.5263V19.1729H43.5776C42.9291 19.1729 42.4681 19.0462 42.1995 18.7963C41.931 18.5464 41.7993 18.1309 41.7993 17.5568V9.06752H45.5263Z" fill="#282828"/>
<path d="M48.6162 3.86263C48.3245 3.57957 48.1247 3.21533 48.0427 2.81723C47.9607 2.41913 48.0002 2.00556 48.1563 1.63025C48.3124 1.25494 48.5777 0.935236 48.9178 0.712661C49.2579 0.490087 49.6571 0.374933 50.0635 0.382156C50.3277 0.377604 50.59 0.427252 50.8343 0.528039C51.0786 0.628825 51.2996 0.778611 51.4837 0.968146C51.8587 1.35662 52.0682 1.87547 52.0682 2.41539C52.0682 2.95531 51.8587 3.47415 51.4837 3.86263C51.2992 4.05162 51.0781 4.20093 50.8339 4.3014C50.5897 4.40188 50.3275 4.4514 50.0635 4.44693C49.7952 4.45331 49.5284 4.40477 49.2795 4.30429C49.0306 4.20381 48.8049 4.05351 48.6162 3.86263Z" fill="#282828"/>
<path d="M51.6229 6.47839H48.4497V21.8154H51.6229V6.47839Z" fill="#282828"/>
<path d="M69.7429 15.3292H58.0232C58.1166 16.5552 58.5714 17.5392 59.3876 18.2811C60.209 19.0252 61.2857 19.4238 62.3936 19.394C64.0992 19.394 65.305 18.6797 66.0108 17.251H69.4356C68.9841 18.6439 68.1018 19.8573 66.916 20.7163C65.7001 21.6169 64.1926 22.0673 62.3936 22.0673C61.0163 22.09 59.6574 21.7492 58.4538 21.0794C57.3015 20.4259 56.3568 19.4607 55.7282 18.2946C55.0696 17.0979 54.7403 15.7109 54.7403 14.1336C54.7403 12.5563 55.0606 11.1693 55.7011 9.97257C56.3125 8.80568 57.2517 7.84301 58.4031 7.20306C59.6279 6.53714 61.0048 6.20134 62.3987 6.22866C63.7483 6.20494 65.081 6.53073 66.2675 7.17435C67.384 7.79009 68.3011 8.7124 68.9104 9.83241C69.5589 11.0421 69.8851 12.3983 69.8578 13.7705C69.8607 14.2923 69.8223 14.8135 69.7429 15.3292ZM66.5344 12.7691C66.5152 11.6005 66.0981 10.6633 65.283 9.95738C64.4679 9.25149 63.4547 8.8991 62.2433 8.90023C61.2075 8.87851 60.2023 9.25162 59.4316 9.94386C58.6525 10.6396 58.1886 11.5814 58.04 12.7691H66.5344Z" fill="#282828"/>
<path d="M83.9514 6.98039C84.9057 7.47945 85.6869 8.25529 86.1924 9.20614C86.7294 10.1912 86.9985 11.379 86.9996 12.7694V21.8159H83.8603V13.2422C83.8603 11.8687 83.5174 10.8161 82.8318 10.0843C82.1462 9.3525 81.209 8.98548 80.0201 8.98323C78.8312 8.98323 77.8895 9.35025 77.1948 10.0843C76.5002 10.8183 76.1523 11.871 76.1512 13.2422V21.8159H72.9713V6.47377H76.1444V8.22668C76.6806 7.58378 77.3627 7.07833 78.1338 6.75242C78.946 6.39864 79.8232 6.2186 80.7091 6.22384C81.8356 6.20642 82.949 6.46622 83.9514 6.98039Z" fill="#282828"/>
<path d="M98.4675 9.06737V6.47348H94.7371V3.30035L91.537 4.3136V6.47348H89.7267V9.06231H91.537V17.5515C91.537 19.0545 91.9169 20.1404 92.6769 20.8091C93.4368 21.4779 94.5317 21.8117 95.9614 21.8105H98.4675V19.1727H96.5255C95.8736 19.1727 95.416 19.0461 95.1475 18.7961C94.879 18.5462 94.7439 18.1308 94.7439 17.5566V9.06737H98.4675Z" fill="#282828"/>
<path d="M110.728 6.93789C111.575 7.35157 112.313 7.95696 112.885 8.70598V6.47348H116.093V22.0605C116.117 23.3728 115.81 24.6701 115.202 25.8331C114.613 26.9306 113.719 27.8343 112.628 28.4354C111.502 29.0648 110.161 29.38 108.605 29.3811C106.526 29.3811 104.8 28.8942 103.428 27.9204C102.769 27.4739 102.217 26.8871 101.812 26.2021C101.407 25.5171 101.159 24.7509 101.086 23.9586H104.23C104.484 24.774 105.035 25.4644 105.773 25.8939C106.626 26.4029 107.606 26.6588 108.599 26.6319C109.879 26.6319 110.913 26.2423 111.703 25.4633C112.492 24.6842 112.886 23.5522 112.885 22.0672V19.5054C112.258 20.3155 111.451 20.9685 110.529 21.4129C109.606 21.8572 108.593 22.0807 107.569 22.0655C106.278 22.0797 105.009 21.7284 103.909 21.0523C102.793 20.3639 101.887 19.3818 101.292 18.2135C100.635 16.9334 100.306 15.511 100.332 14.0728C100.304 12.65 100.634 11.243 101.292 9.98098C101.889 8.83658 102.792 7.87988 103.9 7.21674C105.008 6.55359 106.278 6.20985 107.569 6.22356C108.664 6.20402 109.748 6.44906 110.728 6.93789ZM112.231 11.3708C111.834 10.6314 111.242 10.0151 110.519 9.5892C109.827 9.18419 109.039 8.97248 108.237 8.97619C107.437 8.97213 106.649 9.17889 105.954 9.57568C105.232 9.99042 104.64 10.5972 104.242 11.3286C103.788 12.1706 103.563 13.1167 103.588 14.0728C103.567 15.0408 103.792 15.9985 104.242 16.8558C104.637 17.6114 105.235 18.2422 105.968 18.6779C106.653 19.0895 107.438 19.3072 108.237 19.3078C109.039 19.3121 109.827 19.101 110.519 18.6965C111.244 18.2684 111.837 17.6476 112.231 16.9031C112.682 16.051 112.907 15.0974 112.885 14.1336C112.91 13.1716 112.685 12.2196 112.231 11.3708Z" fill="#282828"/>
<path d="M125.285 6.88221C126.126 6.42905 127.071 6.20375 128.026 6.22867V9.51325H127.218C125.98 9.51325 125.038 9.82848 124.393 10.4589C123.748 11.0894 123.428 12.1843 123.434 13.7435V21.8157H120.261V6.47354H123.434V8.70098C123.879 7.94142 124.518 7.31373 125.285 6.88221Z" fill="#282828"/>
<path d="M131.116 3.86263C130.825 3.57957 130.625 3.21533 130.543 2.81723C130.461 2.41913 130.5 2.00556 130.656 1.63025C130.812 1.25494 131.078 0.935236 131.418 0.712661C131.758 0.490087 132.157 0.374933 132.563 0.382156C132.827 0.377434 133.09 0.427014 133.334 0.527817C133.578 0.628621 133.798 0.778497 133.982 0.968146C134.358 1.35621 134.568 1.87521 134.568 2.41539C134.568 2.95556 134.358 3.47456 133.982 3.86263C133.798 4.05173 133.577 4.20114 133.333 4.30163C133.089 4.40212 132.827 4.45157 132.563 4.44693C132.295 4.45331 132.028 4.40477 131.779 4.30429C131.531 4.20381 131.305 4.05351 131.116 3.86263Z" fill="#282828"/>
<path d="M134.122 6.47839H130.949V21.8154H134.122V6.47839Z" fill="#282828"/>
<path d="M138.198 9.98603C138.798 8.83736 139.706 7.87789 140.819 7.21447C141.932 6.55106 143.208 6.20976 144.504 6.2286C145.527 6.23332 146.537 6.45612 147.468 6.88214C148.372 7.26511 149.169 7.86203 149.791 8.62153V1.21814H153V21.8207H149.791V19.5054C149.231 20.2827 148.491 20.9131 147.635 21.3427C146.656 21.8382 145.572 22.0864 144.475 22.0655C143.184 22.0797 141.916 21.7284 140.816 21.0523C139.7 20.3634 138.794 19.3815 138.198 18.2135C137.542 16.9334 137.213 15.511 137.239 14.0728C137.212 12.6517 137.541 11.2465 138.198 9.98603ZM149.138 11.3708C148.741 10.6313 148.149 10.0151 147.425 9.58918C146.734 9.18402 145.946 8.9723 145.144 8.97617C144.343 8.97212 143.556 9.17888 142.861 9.57567C142.139 9.99051 141.547 10.5973 141.15 11.3286C140.695 12.1701 140.469 13.1164 140.495 14.0728C140.473 15.0411 140.699 15.9989 141.15 16.8558C141.545 17.6112 142.142 18.2421 142.874 18.6779C143.56 19.0895 144.344 19.3072 145.144 19.3078C145.945 19.3123 146.733 19.1011 147.425 18.6965C148.151 18.2679 148.744 17.6465 149.138 16.9014C149.589 16.0493 149.814 15.0957 149.791 14.1319C149.816 13.1704 149.591 12.219 149.138 11.3708Z" fill="#282828"/>
</svg>
