<svg width="23" height="24" viewBox="0 0 23 24" fill="none" xmlns="http://www.w3.org/2000/svg">
<path fill-rule="evenodd" clip-rule="evenodd" d="M11.5 0.0803223C17.8501 0.0803223 23 5.23022 23 11.5803C23 17.9304 17.8501 23.0803 11.5 23.0803C5.15036 23.0803 0 17.9304 0 11.5803C0 5.23068 5.15036 0.0803223 11.5 0.0803223ZM3.70921 16.8078C5.21479 15.7232 6.54017 14.3612 8.51274 13.6364C9.40563 14.1061 10.4212 14.3717 11.5 14.3717C12.5652 14.3717 13.5707 14.113 14.4551 13.6542C16.5707 14.4383 18.0775 15.9179 19.2915 16.8069C15.779 22.0298 7.29908 22.1466 3.70943 16.8078L3.70921 16.8078ZM11.5 3.54949C13.9253 3.54949 15.8924 5.51658 15.8924 7.94222C15.8924 10.3678 13.9253 12.3346 11.5 12.3346C9.07441 12.3346 7.10727 10.3678 7.10727 7.94222C7.10727 5.51663 9.07437 3.54949 11.5 3.54949Z" fill="#49C496"/>
</svg>
